<svg width="154" height="155" viewBox="0 0 154 155" fill="none" xmlns="http://www.w3.org/2000/svg">
<rect width="154" height="155" transform="matrix(-1 0 0 1 154 0)" fill="black"/>
<path d="M119.936 80.6308L116.382 84.1639L112.806 80.6031L111.527 79.3294V81.1346V117.25H84.164V86.1178V85.3678H83.414H70.586H69.836V86.1178V117.25H42.473V81.1346V79.3274L41.1934 80.6035L37.6172 84.1699L34.0638 80.6372L75.2135 39.7284L77.0008 38.033L78.7869 39.7224L119.936 80.6308ZM64.922 111.624V80.4913H89.078V111.624V112.374H89.828H105.863H106.613V111.624V74.7613V74.4494L106.392 74.2294L77.75 45.7554V44.2609L76.4712 45.5322L47.6083 74.2262L47.387 74.4462V74.7581V111.624V112.374H48.137H64.172H64.922V111.624Z" fill="white" stroke="black" stroke-width="1.5"/>
</svg>
