<svg width="88" height="81" viewBox="0 0 88 81" fill="none" xmlns="http://www.w3.org/2000/svg">
<path d="M86.9362 43.6308L83.3823 47.1639L79.8062 43.6031L78.527 42.3294V44.1346V80.25H51.164V49.1178V48.3678H50.414H37.586H36.836V49.1178V80.25H9.47303V44.1346V42.3274L8.19343 43.6035L4.61725 47.1699L1.06379 43.6372L42.2135 2.72838L44.0008 1.03304L45.7869 2.72238L86.9362 43.6308ZM31.922 74.6236V43.4913H56.078V74.6236V75.3736H56.828H72.863H73.613V74.6236V37.7613V37.4494L73.3917 37.2294L44.75 8.75536V7.26095L43.4712 8.53223L14.6083 37.2262L14.387 37.4462V37.7581V74.6236V75.3736H15.137H31.172H31.922V74.6236Z" fill="black" stroke="white" stroke-width="1.5"/>
</svg>
